<?xml version="1.0" standalone="no"?>
<!DOCTYPE svg PUBLIC "-//W3C//DTD SVG 20010904//EN"
 "http://www.w3.org/TR/2001/REC-SVG-20010904/DTD/svg10.dtd">
<svg version="1.0" xmlns="http://www.w3.org/2000/svg"
 width="512.000000pt" height="512.000000pt" viewBox="0 0 512.000000 512.000000"
 preserveAspectRatio="xMidYMid meet">

<g transform="translate(0.000000,512.000000) scale(0.100000,-0.100000)"
fill="#000000" stroke="none">
<path d="M2480 4900 c-19 -6 -525 -118 -1125 -250 -740 -163 -1107 -248 -1141
-264 -29 -14 -68 -39 -87 -56 -72 -63 -127 -183 -127 -276 0 -23 169 -809 376
-1746 411 -1864 388 -1773 481 -1859 61 -56 137 -89 220 -95 61 -5 120 6 546
100 263 58 482 106 488 106 5 0 9 -13 9 -30 0 -98 95 -227 208 -282 l67 -33
1199 -3 c1333 -3 1259 -6 1363 64 61 42 94 83 131 162 l27 57 3 1764 c3 1947
6 1831 -60 1934 -37 57 -97 108 -164 139 l-49 23 -922 3 -921 2 -22 98 c-52
237 -72 283 -148 353 -67 62 -141 92 -237 95 -44 2 -96 -1 -115 -6z m173 -144
c54 -20 104 -61 127 -105 17 -34 70 -243 70 -277 0 -10 -50 -13 -232 -16 -232
-3 -233 -3 -290 -31 -106 -52 -182 -150 -207 -265 -7 -33 -11 -183 -11 -405
l0 -352 -178 182 c-184 188 -204 203 -285 203 -60 0 -134 -46 -164 -103 -8
-16 -91 -243 -184 -505 -123 -343 -172 -494 -176 -538 -10 -114 -3 -124 419
-554 205 -210 385 -388 399 -396 40 -20 104 -28 139 -16 l30 11 -2 -441 -3
-441 -465 -103 c-256 -57 -483 -106 -506 -109 -79 -13 -165 27 -216 100 -25
36 -68 222 -399 1720 -243 1096 -372 1701 -373 1740 -2 105 64 188 174 219 30
8 395 90 810 181 415 91 904 199 1085 240 182 40 346 74 365 74 19 0 52 -6 73
-13z m2196 -562 c64 -32 106 -86 121 -157 8 -37 10 -540 8 -1782 -3 -1664 -4
-1731 -22 -1765 -32 -61 -87 -109 -140 -125 -42 -13 -218 -15 -1204 -15 -847
0 -1165 3 -1193 12 -52 15 -117 73 -140 122 -18 39 -19 113 -19 1799 0 1941
-5 1794 63 1866 18 18 50 42 72 52 38 18 92 19 1221 19 l1180 0 53 -26z"/>
<path d="M3511 3180 c-174 -64 -464 -305 -606 -504 -170 -238 -222 -545 -126
-734 48 -94 156 -183 267 -223 61 -22 214 -30 262 -15 22 7 21 3 -19 -75 -36
-72 -41 -89 -37 -131 4 -33 13 -57 29 -74 49 -52 58 -54 341 -54 301 0 312 3
348 83 27 59 25 72 -21 166 -22 46 -39 84 -37 86 2 1 31 -2 66 -7 117 -18 264
24 363 104 183 146 214 427 81 712 -58 123 -112 197 -241 330 -210 214 -417
348 -550 353 -47 2 -81 -2 -120 -17z"/>
</g>
</svg>
